<mxfile host="app.diagrams.net" modified="2023-08-25T13:55:35.668Z" agent="Mozilla/5.0 (X11; Linux x86_64; rv:109.0) Gecko/20100101 Firefox/112.0" etag="8qZ7GWC4pu_PpJ9Sh0HQ" version="21.6.9" type="github">
  <diagram name="Página-1" id="hzlkmNXlEaryY3OlK3s-">
    <mxGraphModel dx="1434" dy="722" grid="1" gridSize="10" guides="1" tooltips="1" connect="1" arrows="1" fold="1" page="1" pageScale="1" pageWidth="827" pageHeight="1169" math="0" shadow="0">
      <root>
        <mxCell id="0" />
        <mxCell id="1" parent="0" />
        <mxCell id="nY5d-lDZ0RNg51PLaulx-1" value="Médico" style="swimlane;whiteSpace=wrap;html=1;" vertex="1" parent="1">
          <mxGeometry x="550" y="270" width="160" height="140" as="geometry" />
        </mxCell>
        <mxCell id="nY5d-lDZ0RNg51PLaulx-2" value="Mãe" style="swimlane;whiteSpace=wrap;html=1;startSize=23;" vertex="1" parent="1">
          <mxGeometry x="339" y="450" width="150" height="150" as="geometry" />
        </mxCell>
        <mxCell id="nY5d-lDZ0RNg51PLaulx-14" value="&lt;div&gt;Nome&lt;/div&gt;&lt;div&gt;Endereço&lt;/div&gt;&lt;div&gt;Telefone&lt;/div&gt;&lt;div&gt;Data de nascimento&lt;br&gt;&lt;/div&gt;" style="text;html=1;align=center;verticalAlign=middle;resizable=0;points=[];autosize=1;strokeColor=none;fillColor=none;" vertex="1" parent="nY5d-lDZ0RNg51PLaulx-2">
          <mxGeometry x="10" y="30" width="130" height="70" as="geometry" />
        </mxCell>
        <mxCell id="nY5d-lDZ0RNg51PLaulx-3" value="Bebê" style="swimlane;whiteSpace=wrap;html=1;" vertex="1" collapsed="1" parent="1">
          <mxGeometry x="334" y="75" width="160" height="160" as="geometry">
            <mxRectangle x="190" y="100" width="200" height="200" as="alternateBounds" />
          </mxGeometry>
        </mxCell>
        <mxCell id="nY5d-lDZ0RNg51PLaulx-4" value="Berçario" style="swimlane;whiteSpace=wrap;html=1;" vertex="1" collapsed="1" parent="1">
          <mxGeometry x="50" y="100" width="110" height="110" as="geometry">
            <mxRectangle x="50" y="60" width="200" height="200" as="alternateBounds" />
          </mxGeometry>
        </mxCell>
        <mxCell id="nY5d-lDZ0RNg51PLaulx-5" value="" style="endArrow=none;html=1;rounded=0;entryX=1;entryY=0.5;entryDx=0;entryDy=0;" edge="1" parent="1" target="nY5d-lDZ0RNg51PLaulx-10">
          <mxGeometry width="50" height="50" relative="1" as="geometry">
            <mxPoint x="330" y="160" as="sourcePoint" />
            <mxPoint x="220" y="440" as="targetPoint" />
          </mxGeometry>
        </mxCell>
        <mxCell id="nY5d-lDZ0RNg51PLaulx-6" value="" style="endArrow=none;html=1;rounded=0;exitX=0;exitY=0.5;exitDx=0;exitDy=0;" edge="1" parent="1" source="nY5d-lDZ0RNg51PLaulx-10">
          <mxGeometry width="50" height="50" relative="1" as="geometry">
            <mxPoint x="330" y="560" as="sourcePoint" />
            <mxPoint x="160" y="160" as="targetPoint" />
          </mxGeometry>
        </mxCell>
        <mxCell id="nY5d-lDZ0RNg51PLaulx-7" value="" style="endArrow=none;html=1;rounded=0;exitX=0.5;exitY=0;exitDx=0;exitDy=0;entryX=0.5;entryY=1;entryDx=0;entryDy=0;" edge="1" parent="1" source="nY5d-lDZ0RNg51PLaulx-11" target="nY5d-lDZ0RNg51PLaulx-3">
          <mxGeometry width="50" height="50" relative="1" as="geometry">
            <mxPoint x="650" y="430" as="sourcePoint" />
            <mxPoint x="700" y="380" as="targetPoint" />
          </mxGeometry>
        </mxCell>
        <mxCell id="nY5d-lDZ0RNg51PLaulx-8" value="" style="endArrow=none;html=1;rounded=0;exitX=1;exitY=0.5;exitDx=0;exitDy=0;" edge="1" parent="1" source="nY5d-lDZ0RNg51PLaulx-11">
          <mxGeometry width="50" height="50" relative="1" as="geometry">
            <mxPoint x="560" y="430" as="sourcePoint" />
            <mxPoint x="550" y="350" as="targetPoint" />
          </mxGeometry>
        </mxCell>
        <mxCell id="nY5d-lDZ0RNg51PLaulx-9" value="" style="endArrow=none;html=1;rounded=0;exitX=0.5;exitY=1;exitDx=0;exitDy=0;entryX=0.5;entryY=0;entryDx=0;entryDy=0;" edge="1" parent="1" source="nY5d-lDZ0RNg51PLaulx-11" target="nY5d-lDZ0RNg51PLaulx-2">
          <mxGeometry width="50" height="50" relative="1" as="geometry">
            <mxPoint x="310" y="470" as="sourcePoint" />
            <mxPoint x="550" y="330" as="targetPoint" />
          </mxGeometry>
        </mxCell>
        <mxCell id="nY5d-lDZ0RNg51PLaulx-10" value="Ter" style="rhombus;whiteSpace=wrap;html=1;" vertex="1" parent="1">
          <mxGeometry x="210" y="120" width="80" height="80" as="geometry" />
        </mxCell>
        <mxCell id="nY5d-lDZ0RNg51PLaulx-11" value="Ter" style="rhombus;whiteSpace=wrap;html=1;" vertex="1" parent="1">
          <mxGeometry x="374" y="310" width="80" height="80" as="geometry" />
        </mxCell>
        <mxCell id="nY5d-lDZ0RNg51PLaulx-12" value="&lt;div&gt;Nome&lt;/div&gt;&lt;div&gt;Data de nascimento&lt;/div&gt;&lt;div&gt;Peso&lt;/div&gt;&lt;div&gt;Altura&lt;br&gt;&lt;/div&gt;" style="text;html=1;align=center;verticalAlign=middle;resizable=0;points=[];autosize=1;strokeColor=none;fillColor=none;" vertex="1" parent="1">
          <mxGeometry x="349" y="130" width="130" height="70" as="geometry" />
        </mxCell>
        <mxCell id="nY5d-lDZ0RNg51PLaulx-13" value="&lt;div&gt;CRM&lt;/div&gt;&lt;div&gt;Nome&lt;/div&gt;&lt;div&gt;Telefone&lt;/div&gt;&lt;div&gt;especialidade&lt;/div&gt;&lt;div&gt;&lt;br&gt;&lt;/div&gt;" style="text;html=1;align=center;verticalAlign=middle;resizable=0;points=[];autosize=1;strokeColor=none;fillColor=none;" vertex="1" parent="1">
          <mxGeometry x="580" y="305" width="100" height="90" as="geometry" />
        </mxCell>
        <mxCell id="nY5d-lDZ0RNg51PLaulx-15" value="1" style="text;html=1;align=center;verticalAlign=middle;resizable=0;points=[];autosize=1;strokeColor=none;fillColor=none;" vertex="1" parent="1">
          <mxGeometry x="155" y="128" width="30" height="30" as="geometry" />
        </mxCell>
        <mxCell id="nY5d-lDZ0RNg51PLaulx-16" value="N" style="text;html=1;align=center;verticalAlign=middle;resizable=0;points=[];autosize=1;strokeColor=none;fillColor=none;" vertex="1" parent="1">
          <mxGeometry x="305" y="128" width="30" height="30" as="geometry" />
        </mxCell>
        <mxCell id="nY5d-lDZ0RNg51PLaulx-17" value="N" style="text;html=1;align=center;verticalAlign=middle;resizable=0;points=[];autosize=1;strokeColor=none;fillColor=none;" vertex="1" parent="1">
          <mxGeometry x="415" y="228" width="30" height="30" as="geometry" />
        </mxCell>
        <mxCell id="nY5d-lDZ0RNg51PLaulx-18" value="1" style="text;html=1;align=center;verticalAlign=middle;resizable=0;points=[];autosize=1;strokeColor=none;fillColor=none;" vertex="1" parent="1">
          <mxGeometry x="525" y="318" width="30" height="30" as="geometry" />
        </mxCell>
        <mxCell id="nY5d-lDZ0RNg51PLaulx-19" value="1" style="text;html=1;align=center;verticalAlign=middle;resizable=0;points=[];autosize=1;strokeColor=none;fillColor=none;" vertex="1" parent="1">
          <mxGeometry x="405" y="418" width="30" height="30" as="geometry" />
        </mxCell>
      </root>
    </mxGraphModel>
  </diagram>
</mxfile>
